<svg width="24" height="24" viewBox="0 0 24 24" fill="none" xmlns="http://www.w3.org/2000/svg">
<path d="M15.7125 10.941H21.0401C21.9419 10.941 22.6729 10.21 22.6729 9.30831C22.6729 8.40659 21.9419 7.6756 21.0401 7.6756H18.4515C18.5153 7.62263 18.5773 7.5661 18.6373 7.50603C19.1364 7.00701 19.3914 6.37558 19.3914 5.67292C19.3914 4.97027 19.1364 4.33884 18.6373 3.83981C18.1383 3.34078 17.5069 3.08579 16.8042 3.08579C16.1067 3.08579 15.4861 3.3469 14.99 3.83173C14.4812 4.32894 14.2171 4.96283 14.2171 5.67292C14.2171 5.8419 14.2318 6.00676 14.2612 6.16666L10.5166 3.51631C9.83022 3.03046 8.8872 3.14454 8.33643 3.78005C7.70299 4.51094 7.83896 5.62894 8.62912 6.1867L9.97594 7.1374L4.01019 3.53645C3.33521 3.12903 2.46376 3.27656 1.96049 3.88344M15.7125 10.941L1.96049 3.88344M15.7125 10.941L12.8897 11.8211L12.6346 19.4023C12.6046 20.2933 11.8736 21 10.9822 21C10.1107 21 9.38878 20.3234 9.33236 19.4537L8.78036 10.9453L2.24891 6.18828C1.50584 5.64708 1.37369 4.59105 1.96049 3.88344M15.7125 10.941L1.96049 3.88344" stroke="white" stroke-width="2"/>
</svg>
